<svg xmlns="http://www.w3.org/2000/svg" width="123" height="44" fill="none"><path fill="#fff" fill-rule="evenodd" d="M39.74 17.61c-1.99 2.122-5.253 3.737-8.569 4.39 3.316.653 6.578 2.268 8.569 4.39L42 28.798l-3.25.626c-2.862.55-6.454-.054-9.521-1.467 2.296 2.47 3.983 5.687 4.342 8.57l.407 3.271-2.997-1.397c-2.64-1.23-5.19-3.823-6.838-6.763.4 3.344-.132 6.934-1.542 9.476L21 44l-1.601-2.886c-1.41-2.542-1.943-6.132-1.542-9.476-1.649 2.94-4.198 5.533-6.838 6.763L8.02 39.798l.407-3.272c.36-2.882 2.046-6.099 4.343-8.57-3.068 1.414-6.66 2.019-9.522 1.468L0 28.798l2.26-2.408c1.99-2.122 5.253-3.737 8.569-4.39-3.316-.653-6.579-2.268-8.57-4.39L0 15.202l3.25-.626c2.861-.55 6.453.054 9.521 1.467-2.297-2.47-3.984-5.687-4.343-8.57l-.407-3.271 2.998 1.397c2.64 1.23 5.19 3.823 6.838 6.763-.401-3.344.132-6.934 1.542-9.476L21 0l1.6 2.886c1.411 2.542 1.944 6.132 1.543 9.476 1.648-2.94 4.198-5.533 6.838-6.763l2.998-1.397-.408 3.272c-.358 2.882-2.045 6.099-4.342 8.57 3.068-1.414 6.66-2.019 9.522-1.468l3.249.626-2.26 2.408zm-22.903 8.503a5.827 5.827 0 0 0 8.219 0 5.775 5.775 0 0 0 0-8.189 5.827 5.827 0 0 0-8.219 0 5.775 5.775 0 0 0 0 8.19z" clip-rule="evenodd"/><path fill="#fff" d="M53.77 32V11.636h8.153c1.498 0 2.748.222 3.749.667 1 .444 1.753 1.06 2.257 1.849.504.782.756 1.684.756 2.705 0 .795-.16 1.494-.478 2.098a4.119 4.119 0 0 1-1.312 1.471c-.55.378-1.18.646-1.89.806v.198a4.56 4.56 0 0 1 2.178.657 4.648 4.648 0 0 1 1.66 1.7c.425.723.637 1.584.637 2.585 0 1.08-.268 2.045-.805 2.894-.53.842-1.316 1.508-2.357 1.998-1.04.49-2.323.736-3.848.736h-8.7zm4.305-3.52h3.51c1.2 0 2.075-.229 2.625-.686.55-.464.826-1.08.826-1.85 0-.563-.136-1.06-.408-1.49a2.769 2.769 0 0 0-1.163-1.015c-.498-.245-1.09-.368-1.78-.368h-3.61v5.41zm0-8.322h3.192c.59 0 1.114-.103 1.571-.309a2.61 2.61 0 0 0 1.094-.895c.272-.384.407-.845.407-1.382 0-.735-.261-1.329-.785-1.78-.517-.45-1.253-.675-2.207-.675h-3.272v5.04zm17.243-8.522V32h-4.236V11.636h4.236zm6.628 20.652c-.974 0-1.843-.169-2.605-.507a4.193 4.193 0 0 1-1.81-1.521c-.437-.676-.656-1.518-.656-2.526 0-.848.156-1.56.467-2.137a3.784 3.784 0 0 1 1.273-1.393 6.174 6.174 0 0 1 1.83-.795c.69-.179 1.412-.305 2.167-.378a54.777 54.777 0 0 0 2.148-.258c.544-.086.938-.212 1.183-.378.246-.166.368-.411.368-.736v-.06c0-.63-.199-1.116-.597-1.461-.39-.345-.947-.517-1.67-.517-.762 0-1.369.169-1.82.507a2.33 2.33 0 0 0-.894 1.253l-3.918-.319c.199-.928.59-1.73 1.173-2.406.584-.682 1.336-1.206 2.257-1.57.928-.372 2.002-.558 3.222-.558.849 0 1.66.1 2.436.299a6.374 6.374 0 0 1 2.078.924c.61.418 1.09.955 1.442 1.611.351.65.527 1.429.527 2.337V32H86.53v-2.118h-.12a4.31 4.31 0 0 1-.984 1.263 4.54 4.54 0 0 1-1.481.845c-.577.199-1.243.298-1.999.298zm1.213-2.923c.623 0 1.173-.123 1.65-.368.478-.252.853-.59 1.124-1.014.272-.424.408-.905.408-1.442v-1.62a2.272 2.272 0 0 1-.547.238 9.95 9.95 0 0 1-.766.189c-.285.053-.57.103-.855.15l-.775.108a5.247 5.247 0 0 0-1.303.348c-.371.16-.66.375-.865.647-.205.265-.308.596-.308.994 0 .577.209 1.018.626 1.323.425.298.962.447 1.611.447zM92.634 32v-2.526l7.477-9.257v-.109h-7.219v-3.38h12.32v2.753l-7.02 9.029v.11h7.278V32H92.634zm21.478.298c-1.571 0-2.923-.318-4.057-.954a6.538 6.538 0 0 1-2.605-2.725c-.61-1.18-.915-2.575-.915-4.186 0-1.57.305-2.95.915-4.136.61-1.187 1.468-2.111 2.575-2.774 1.114-.663 2.42-.995 3.918-.995a7.97 7.97 0 0 1 2.814.488 6.246 6.246 0 0 1 2.287 1.441c.656.643 1.166 1.452 1.531 2.427.365.967.547 2.1.547 3.4v1.163h-12.896v-2.625h8.909c0-.61-.133-1.15-.398-1.62a2.847 2.847 0 0 0-1.104-1.104c-.464-.272-1.004-.408-1.62-.408-.643 0-1.214.15-1.711.448-.49.291-.875.686-1.153 1.183a3.34 3.34 0 0 0-.428 1.64v2.496c0 .756.14 1.409.418 1.96.285.55.686.974 1.203 1.272.517.298 1.13.447 1.84.447.47 0 .901-.066 1.292-.198a2.679 2.679 0 0 0 1.004-.597 2.59 2.59 0 0 0 .637-.975l3.917.259a5.336 5.336 0 0 1-1.223 2.466c-.609.696-1.398 1.24-2.366 1.63-.961.385-2.072.577-3.331.577z"/></svg>