<svg width="71" height="73" viewBox="0 0 71 73" fill="none" xmlns="http://www.w3.org/2000/svg">
<path d="M35.3571 18.0469C35.3571 28.0139 27.4422 36.0938 17.6786 36.0938H0V18.0469C0 8.07984 7.91495 0 17.6786 0C27.4422 0 35.3571 8.07984 35.3571 18.0469Z" fill="white"/>
<path d="M35.3555 54.1407C35.3555 44.1736 43.2704 36.0938 53.034 36.0938H70.7127V54.1407C70.7127 64.1077 62.7976 72.1876 53.034 72.1876C43.2704 72.1876 35.3555 64.1077 35.3555 54.1407Z" fill="white"/>
<path d="M0 54.1407C0 64.1077 7.91495 72.1876 17.6786 72.1876H35.3571V54.1407C35.3571 44.1736 27.4422 36.0938 17.6786 36.0938C7.91495 36.0938 0 44.1736 0 54.1407Z" fill="white"/>
<path d="M70.7127 18.0469C70.7127 8.07984 62.7976 0 53.034 0H35.3555V18.0469C35.3555 28.0139 43.2704 36.0938 53.034 36.0938C62.7976 36.0938 70.7127 28.0139 70.7127 18.0469Z" fill="white"/>
</svg>
