<svg width="595" height="111" viewBox="0 0 595 111" fill="none" xmlns="http://www.w3.org/2000/svg">
<mask id="mask0_1329_1031" style="mask-type:luminance" maskUnits="userSpaceOnUse" x="34" y="0" width="67" height="43">
<path d="M34.9958 0H100.479V42.5584H34.9958V0Z" fill="white"/>
</mask>
<g mask="url(#mask0_1329_1031)">
<mask id="mask1_1329_1031" style="mask-type:luminance" maskUnits="userSpaceOnUse" x="35" y="0" width="66" height="43">
<path d="M70.9205 39.7307C74.6299 43.4401 80.6473 43.4401 84.3567 39.7307L100.209 23.8788C90.3105 9.64661 73.8421 0.326172 55.1957 0.326172C48.1584 0.326172 41.4334 1.65293 35.2557 4.06872L70.9205 39.7307Z" fill="white"/>
</mask>
<g mask="url(#mask1_1329_1031)">
<path d="M-2.25818 -2.32733H112.644V112.578H-2.25818V-2.32733Z" fill="white"/>
</g>
</g>
<mask id="mask2_1329_1031" style="mask-type:luminance" maskUnits="userSpaceOnUse" x="0" y="10" width="44" height="67">
<path d="M0 10.2408H43.0752V76.6697H0V10.2408Z" fill="white"/>
</mask>
<g mask="url(#mask2_1329_1031)">
<mask id="mask3_1329_1031" style="mask-type:luminance" maskUnits="userSpaceOnUse" x="0" y="10" width="44" height="67">
<path d="M40.2393 40.8833C43.9487 37.174 43.9487 31.1566 40.2393 27.4472L23.3315 10.5366C9.44206 20.479 0.395264 36.7428 0.395264 55.1266C0.395264 62.6835 1.92379 69.8867 4.69339 76.4348L40.2393 40.8833Z" fill="white"/>
</mask>
<g mask="url(#mask3_1329_1031)">
<path d="M-2.25818 -2.32739H112.644V112.578H-2.25818V-2.32739Z" fill="white"/>
</g>
</g>
<mask id="mask4_1329_1031" style="mask-type:luminance" maskUnits="userSpaceOnUse" x="67" y="36" width="44" height="65">
<path d="M67.9298 36.2729H110.386V100.908H67.9298V36.2729Z" fill="white"/>
</mask>
<g mask="url(#mask4_1329_1031)">
<mask id="mask5_1329_1031" style="mask-type:luminance" maskUnits="userSpaceOnUse" x="68" y="36" width="42" height="65">
<path d="M106.674 36.3088L70.8819 72.098C67.1725 75.8074 67.1725 81.8275 70.8819 85.5369L85.8742 100.529C100.427 90.678 109.991 74.0162 109.991 55.1211C109.991 48.5094 108.816 42.1742 106.674 36.3033" fill="white"/>
</mask>
<g mask="url(#mask5_1329_1031)">
<path d="M-2.25806 -2.32733H112.644V112.578H-2.25806V-2.32733Z" fill="white"/>
</g>
</g>
<mask id="mask6_1329_1031" style="mask-type:luminance" maskUnits="userSpaceOnUse" x="11" y="70" width="64" height="41">
<path d="M11.3217 70.387H74.0439V110.333H11.3217V70.387Z" fill="white"/>
</mask>
<g mask="url(#mask6_1329_1031)">
<mask id="mask7_1329_1031" style="mask-type:luminance" maskUnits="userSpaceOnUse" x="11" y="70" width="63" height="40">
<path d="M40.2034 73.2506C36.4913 69.5412 30.4739 69.5412 26.7645 73.2506L11.6395 88.3756C21.6537 101.475 37.4366 109.922 55.1957 109.922C61.6802 109.922 67.9049 108.791 73.6791 106.721L40.2034 73.2506Z" fill="white"/>
</mask>
<g mask="url(#mask7_1329_1031)">
<path d="M-2.25818 -2.32733H112.644V112.578H-2.25818V-2.32733Z" fill="white"/>
</g>
</g>
<mask id="mask8_1329_1031" style="mask-type:luminance" maskUnits="userSpaceOnUse" x="130" y="71" width="16" height="26">
<path d="M130.375 71.625H145.12V96.7969H130.375V71.625Z" fill="white"/>
</mask>
<g mask="url(#mask8_1329_1031)">
<mask id="mask9_1329_1031" style="mask-type:luminance" maskUnits="userSpaceOnUse" x="130" y="71" width="16" height="26">
<path d="M132.115 84.6042V95.2657H135.922C137.115 95.2657 138.083 95.2136 138.854 95.1042C139.625 94.9948 140.344 94.724 141.021 94.3073C142.651 93.2032 143.474 91.724 143.474 89.8646C143.474 88.9167 143.245 88.0365 142.792 87.2136C142.344 86.3959 141.703 85.7969 140.891 85.3959C139.833 84.8646 138.073 84.6042 135.63 84.6042H132.115ZM132.115 73.2761V83.1042H135.651C136.453 83.1042 137.13 83.0469 137.693 82.9323C138.255 82.823 138.802 82.573 139.323 82.1823C140.021 81.6771 140.505 81.1146 140.771 80.4844C141.042 79.8542 141.182 79.0834 141.182 78.1771C141.182 77.3125 141.01 76.5261 140.672 75.7969C140.333 75.0625 139.823 74.4948 139.13 74.0625C138.563 73.7032 137.964 73.4844 137.313 73.4063C136.661 73.323 135.844 73.2761 134.854 73.2761H132.115ZM136.911 96.7552H130.521V71.7865H135.521C136.672 71.7865 137.651 71.875 138.464 72.0625C139.271 72.2552 140.01 72.6459 140.693 73.2448C142.083 74.4532 142.781 76.1771 142.781 78.4167C142.781 80.724 141.823 82.4271 139.901 83.5157C140.911 83.724 141.802 84.1146 142.594 84.7032C143.38 85.2969 143.995 86.0261 144.422 86.9063C144.854 87.7865 145.073 88.7448 145.073 89.7969C145.073 91.9271 144.302 93.6459 142.755 94.9636C141.943 95.6459 141.083 96.1146 140.161 96.375C139.245 96.6355 138.161 96.7552 136.922 96.7552" fill="white"/>
</mask>
<g mask="url(#mask9_1329_1031)">
<path d="M125.521 64.4323H239.51V110.464H125.521V64.4323Z" fill="white"/>
</g>
</g>
<mask id="mask10_1329_1031" style="mask-type:luminance" maskUnits="userSpaceOnUse" x="148" y="81" width="12" height="17">
<path d="M148.714 81.3334H159.865V97.1563H148.714V81.3334Z" fill="white"/>
</mask>
<g mask="url(#mask10_1329_1031)">
<mask id="mask11_1329_1031" style="mask-type:luminance" maskUnits="userSpaceOnUse" x="148" y="81" width="12" height="17">
<path d="M158.271 81.4531H159.771V90.625C159.771 91.6667 159.724 92.5156 159.615 93.1823C159.505 93.8542 159.255 94.4635 158.844 95.026C158.333 95.6927 157.672 96.2031 156.854 96.5573C156.031 96.9063 155.172 97.0729 154.271 97.0729C153.375 97.0729 152.521 96.9063 151.703 96.5573C150.88 96.2031 150.214 95.6927 149.693 95.026C149.412 94.6354 149.203 94.1927 149.073 93.7344C148.943 93.276 148.854 92.8073 148.823 92.3438C148.792 91.8854 148.771 91.3125 148.771 90.625V81.4531H150.261V90.0938C150.261 90.9323 150.302 91.6667 150.38 92.3073C150.464 92.9427 150.641 93.5156 150.912 94.0365C151.182 94.5573 151.594 94.9531 152.141 95.2448C152.693 95.5365 153.401 95.6823 154.271 95.6823C155.932 95.6823 157.011 95.2031 157.521 94.2448C158.031 93.2865 158.281 91.8958 158.281 90.0833L158.271 81.4531Z" fill="white"/>
</mask>
<g mask="url(#mask11_1329_1031)">
<path d="M125.521 64.4323H239.511V110.464H125.521V64.4323Z" fill="white"/>
</g>
</g>
<mask id="mask12_1329_1031" style="mask-type:luminance" maskUnits="userSpaceOnUse" x="164" y="74" width="4" height="23">
<path d="M164.359 74.8646H167.234V96.7969H164.359V74.8646Z" fill="white"/>
</mask>
<g mask="url(#mask12_1329_1031)">
<mask id="mask13_1329_1031" style="mask-type:luminance" maskUnits="userSpaceOnUse" x="164" y="74" width="4" height="23">
<path d="M166.583 96.7552H165.094V81.4531H166.583V96.7552ZM165.854 74.9948C166.234 74.9948 166.552 75.125 166.823 75.3959C167.094 75.6667 167.214 75.9844 167.214 76.3542C167.214 76.7448 167.083 77.0625 166.813 77.3229C166.542 77.5834 166.224 77.7136 165.854 77.7136C165.484 77.7136 165.151 77.5834 164.891 77.3125C164.63 77.0469 164.495 76.7344 164.495 76.3542C164.495 75.9948 164.625 75.6771 164.88 75.4063C165.141 75.1354 165.464 74.9948 165.854 74.9948Z" fill="white"/>
</mask>
<g mask="url(#mask13_1329_1031)">
<path d="M125.521 64.4323H239.511V110.464H125.521V64.4323Z" fill="white"/>
</g>
</g>
<mask id="mask14_1329_1031" style="mask-type:luminance" maskUnits="userSpaceOnUse" x="172" y="69" width="2" height="28">
<path d="M172.161 69.4323H173.661V96.7552H172.161V69.4323Z" fill="white"/>
</mask>
<g mask="url(#mask14_1329_1031)">
<path d="M125.521 64.4323H239.51V110.464H125.521V64.4323Z" fill="white"/>
</g>
<mask id="mask15_1329_1031" style="mask-type:luminance" maskUnits="userSpaceOnUse" x="177" y="69" width="16" height="29">
<path d="M177.125 69.2917H192.224V97.1563H177.125V69.2917Z" fill="white"/>
</mask>
<g mask="url(#mask15_1329_1031)">
<mask id="mask16_1329_1031" style="mask-type:luminance" maskUnits="userSpaceOnUse" x="177" y="69" width="16" height="29">
<path d="M184.693 95.6927C185.943 95.6927 187.021 95.3854 187.943 94.7656C188.865 94.1459 189.552 93.3125 190.01 92.2656C190.474 91.2136 190.714 90.0729 190.714 88.8334C190.714 87.9636 190.573 87.1354 190.281 86.3646C189.995 85.5938 189.583 84.9167 189.042 84.3334C188.505 83.7552 187.865 83.3073 187.104 82.9844C186.344 82.6667 185.51 82.5052 184.594 82.5052C183.734 82.5052 182.932 82.6823 182.214 83.0365C181.495 83.3854 180.865 83.875 180.333 84.4844C179.802 85.0938 179.391 85.8073 179.104 86.5834C178.813 87.3646 178.661 88.1771 178.661 88.9948C178.661 90.1771 178.911 91.2761 179.411 92.3073C179.911 93.3334 180.615 94.1563 181.531 94.7656C182.453 95.375 183.505 95.6823 184.693 95.6823M190.625 96.7448V94.0052H190.552C190.01 94.9427 189.203 95.6927 188.104 96.2552C187.005 96.8125 185.88 97.0834 184.724 97.0834C183.224 97.0834 181.901 96.724 180.755 96.0156C179.604 95.3073 178.724 94.3229 178.104 93.0834C177.484 91.8438 177.172 90.4844 177.172 89.0052C177.172 87.8854 177.344 86.8438 177.693 85.875C178.042 84.9063 178.542 84.0729 179.203 83.3542C179.865 82.6354 180.651 82.0938 181.573 81.7031C182.495 81.3125 183.521 81.1146 184.651 81.1146C185.844 81.1146 186.964 81.375 188.01 81.8959C189.063 82.4167 189.901 83.1459 190.542 84.0938H190.615V69.4323H192.104V96.7552L190.625 96.7448Z" fill="white"/>
</mask>
<g mask="url(#mask16_1329_1031)">
<path d="M125.521 64.4323H239.51V110.464H125.521V64.4323Z" fill="white"/>
</g>
</g>
<mask id="mask17_1329_1031" style="mask-type:luminance" maskUnits="userSpaceOnUse" x="196" y="74" width="4" height="23">
<path d="M196.901 74.8646H199.958V96.7969H196.901V74.8646Z" fill="white"/>
</mask>
<g mask="url(#mask17_1329_1031)">
<mask id="mask18_1329_1031" style="mask-type:luminance" maskUnits="userSpaceOnUse" x="197" y="74" width="3" height="23">
<path d="M199.162 96.7552H197.672V81.4531H199.162V96.7552ZM198.432 74.9948C198.813 74.9948 199.141 75.125 199.401 75.3959C199.662 75.6667 199.792 75.9844 199.792 76.3542C199.792 76.7448 199.662 77.0625 199.391 77.3229C199.125 77.5834 198.813 77.7136 198.432 77.7136C198.052 77.7136 197.734 77.5834 197.474 77.3125C197.214 77.0469 197.073 76.7344 197.073 76.3542C197.073 75.9948 197.203 75.6771 197.464 75.4063C197.724 75.1354 198.042 74.9948 198.432 74.9948Z" fill="white"/>
</mask>
<g mask="url(#mask18_1329_1031)">
<path d="M125.521 64.4323H239.511V110.464H125.521V64.4323Z" fill="white"/>
</g>
</g>
<mask id="mask19_1329_1031" style="mask-type:luminance" maskUnits="userSpaceOnUse" x="204" y="80" width="12" height="17">
<path d="M204.63 80.974H215.958V96.7969H204.63V80.974Z" fill="white"/>
</mask>
<g mask="url(#mask19_1329_1031)">
<mask id="mask20_1329_1031" style="mask-type:luminance" maskUnits="userSpaceOnUse" x="204" y="81" width="12" height="16">
<path d="M206.255 81.4531V83.8438H206.323C206.771 82.9948 207.391 82.3229 208.182 81.8438C208.974 81.3646 209.875 81.125 210.854 81.125C212.13 81.125 213.13 81.375 213.875 81.875C214.615 82.375 215.13 83.0937 215.432 84.026C215.734 84.9531 215.88 86.125 215.88 87.5052V96.7448H214.38V87.5156C214.38 86.4531 214.302 85.5625 214.141 84.8542C213.984 84.1458 213.63 83.5729 213.094 83.1563C212.552 82.7344 211.76 82.5156 210.714 82.5156C209.521 82.5156 208.594 82.8333 207.932 83.474C207.271 84.1146 206.823 84.9271 206.594 85.9167C206.365 86.9063 206.245 87.9948 206.245 89.2031V96.7552H204.745V81.4531H206.255Z" fill="white"/>
</mask>
<g mask="url(#mask20_1329_1031)">
<path d="M125.521 64.4323H239.511V110.464H125.521V64.4323Z" fill="white"/>
</g>
</g>
<mask id="mask21_1329_1031" style="mask-type:luminance" maskUnits="userSpaceOnUse" x="219" y="80" width="16" height="26">
<path d="M219.375 80.974H234.656V105.609H219.375V80.974Z" fill="white"/>
</mask>
<g mask="url(#mask21_1329_1031)">
<mask id="mask22_1329_1031" style="mask-type:luminance" maskUnits="userSpaceOnUse" x="219" y="81" width="16" height="25">
<path d="M227.042 82.5156C226.182 82.5156 225.391 82.6927 224.672 83.0469C223.953 83.3959 223.323 83.8854 222.792 84.4948C222.26 85.1042 221.854 85.8125 221.563 86.5938C221.271 87.375 221.125 88.1823 221.125 89.0052C221.125 90.1771 221.375 91.2865 221.875 92.3125C222.375 93.3438 223.073 94.1667 223.995 94.7761C224.912 95.3854 225.964 95.6927 227.151 95.6927C228.401 95.6927 229.484 95.3854 230.401 94.7656C231.323 94.1459 232.01 93.3125 232.474 92.2656C232.932 91.2136 233.172 90.0729 233.172 88.8334C233.172 87.6667 232.922 86.5938 232.412 85.625C231.901 84.6563 231.182 83.8959 230.255 83.3438C229.323 82.7969 228.255 82.5156 227.042 82.5156ZM234.563 81.4531V96.0261C234.563 97.4948 234.474 98.724 234.292 99.6927C234.115 100.667 233.693 101.615 233.042 102.516C232.344 103.464 231.453 104.193 230.391 104.703C229.333 105.214 228.172 105.464 226.943 105.464C225.594 105.464 224.365 105.203 223.245 104.693C222.125 104.182 221.224 103.432 220.542 102.432C219.865 101.432 219.484 100.266 219.401 98.9063H220.891C220.943 99.9323 221.255 100.833 221.802 101.625C222.354 102.417 223.073 103.016 223.953 103.432C224.833 103.854 225.792 104.073 226.833 104.073C227.833 104.073 228.771 103.885 229.63 103.505C230.495 103.125 231.203 102.557 231.724 101.797C232.271 100.984 232.63 100.125 232.813 99.2031C232.995 98.2865 233.083 97.2136 233.083 95.9948V94.1042H233.01C232.333 95.0156 231.464 95.7448 230.38 96.2865C229.302 96.8229 228.203 97.0938 227.042 97.0938C225.604 97.0938 224.323 96.724 223.193 95.9948C222.063 95.2656 221.193 94.2865 220.563 93.0469C219.932 91.8073 219.63 90.4948 219.63 89.0834C219.63 87.6354 219.953 86.3073 220.604 85.0834C221.255 83.8646 222.151 82.9063 223.313 82.1927C224.474 81.4844 225.781 81.1354 227.245 81.1354C229.604 81.1354 231.521 82.125 233.005 84.1146H233.073V81.4531H234.563Z" fill="white"/>
</mask>
<g mask="url(#mask22_1329_1031)">
<path d="M125.521 64.4323H239.511V110.464H125.521V64.4323Z" fill="white"/>
</g>
</g>
<mask id="mask23_1329_1031" style="mask-type:luminance" maskUnits="userSpaceOnUse" x="248" y="71" width="16" height="27">
<path d="M248.474 71.4115H263.781V97.2136H248.474V71.4115Z" fill="white"/>
</mask>
<g mask="url(#mask23_1329_1031)">
<mask id="mask24_1329_1031" style="mask-type:luminance" maskUnits="userSpaceOnUse" x="248" y="71" width="16" height="27">
<path d="M262.552 74.9635L261.422 75.8958C260.193 73.9271 258.5 72.9479 256.359 72.9479C255.49 72.9479 254.693 73.1563 253.974 73.5833C253.25 74.0156 252.682 74.5938 252.271 75.3281C251.859 76.0573 251.651 76.8542 251.651 77.7135C251.651 78.8646 252.042 79.7552 252.813 80.3958C253.583 81.0365 254.703 81.6979 256.151 82.3854L260.922 84.875C262.823 86.0781 263.771 87.724 263.771 89.8333C263.771 91.1771 263.401 92.4063 262.672 93.5156C261.943 94.625 260.974 95.4948 259.771 96.1354C258.573 96.776 257.302 97.0833 255.953 97.0833C254.25 97.0833 252.74 96.6042 251.443 95.6354C250.141 94.6667 249.193 93.3646 248.604 91.7135L249.99 91.0938C250.563 92.4948 251.344 93.5938 252.354 94.3958C253.359 95.1979 254.583 95.5938 256.021 95.5938C257.104 95.5938 258.12 95.3333 259.063 94.8177C260 94.2969 260.76 93.5781 261.323 92.6771C261.88 91.776 262.172 90.7865 262.172 89.7031C262.172 88.8438 261.932 88.1042 261.443 87.4844C260.953 86.8646 260.391 86.375 259.771 86.0052C259.151 85.6354 258.271 85.1771 257.141 84.6354L252.641 82.2448C250.912 81.1771 250.052 79.6875 250.052 77.776C250.052 76.5573 250.323 75.4635 250.87 74.5052C251.422 73.5469 252.182 72.7969 253.151 72.2552C254.12 71.7135 255.224 71.4531 256.453 71.4531C257.714 71.4531 258.891 71.776 259.99 72.4063C261.094 73.0365 261.943 73.8854 262.542 74.9635" fill="white"/>
</mask>
<g mask="url(#mask24_1329_1031)">
<path d="M243.604 66.4531H354.25V102.083H243.604V66.4531Z" fill="white"/>
</g>
</g>
<mask id="mask25_1329_1031" style="mask-type:luminance" maskUnits="userSpaceOnUse" x="267" y="81" width="20" height="16">
<path d="M267.542 81.0677H286.609V96.7969H267.542V81.0677Z" fill="white"/>
</mask>
<g mask="url(#mask25_1329_1031)">
<mask id="mask26_1329_1031" style="mask-type:luminance" maskUnits="userSpaceOnUse" x="267" y="81" width="20" height="16">
<path d="M269.13 81.4531V83.375H269.203C269.542 82.6771 270.063 82.125 270.75 81.724C271.443 81.3281 272.203 81.125 273.042 81.125C274.021 81.125 274.891 81.3646 275.63 81.8438C276.37 82.3281 276.953 83.0156 277.344 83.9063C277.75 83.0156 278.344 82.3281 279.12 81.8438C279.901 81.3646 280.802 81.125 281.802 81.125C283.052 81.125 284.031 81.3854 284.724 81.8958C285.412 82.4063 285.891 83.1042 286.151 83.9844C286.412 84.8646 286.531 85.9167 286.531 87.1458V96.7552H285.063V86.9531C285.063 85.5365 284.854 84.4375 284.422 83.6667C283.99 82.8958 283.109 82.5156 281.781 82.5156C280.781 82.5156 279.99 82.776 279.412 83.2865C278.833 83.7969 278.422 84.4531 278.193 85.2448C277.964 86.0365 277.854 86.9479 277.854 87.9375V96.7552H276.354V87.3177C276.354 86.3958 276.271 85.5833 276.104 84.8958C275.932 84.2031 275.604 83.625 275.094 83.1875C274.583 82.7448 273.87 82.5156 272.932 82.5156C271.49 82.5156 270.49 83.0833 269.943 84.2344C269.391 85.3854 269.12 86.7552 269.12 88.3438V96.7552H267.62V81.4531H269.13Z" fill="white"/>
</mask>
<g mask="url(#mask26_1329_1031)">
<path d="M243.604 66.4531H354.25V102.083H243.604V66.4531Z" fill="white"/>
</g>
</g>
<mask id="mask27_1329_1031" style="mask-type:luminance" maskUnits="userSpaceOnUse" x="289" y="81" width="17" height="17">
<path d="M289.948 81.0677H305.12V97.2136H289.948V81.0677Z" fill="white"/>
</mask>
<g mask="url(#mask27_1329_1031)">
<mask id="mask28_1329_1031" style="mask-type:luminance" maskUnits="userSpaceOnUse" x="290" y="81" width="16" height="17">
<path d="M297.49 82.5156C296.63 82.5156 295.833 82.6979 295.109 83.0469C294.391 83.3958 293.76 83.8854 293.229 84.4948C292.703 85.1042 292.292 85.8177 292 86.5938C291.714 87.375 291.563 88.1875 291.563 89.0052C291.563 90.1771 291.813 91.2865 292.313 92.3177C292.813 93.3438 293.521 94.1667 294.432 94.776C295.344 95.3854 296.401 95.6979 297.594 95.6979C298.844 95.6979 299.922 95.3854 300.844 94.7656C301.76 94.1458 302.453 93.3177 302.912 92.2656C303.37 91.2135 303.609 90.0781 303.609 88.8333C303.609 87.9635 303.474 87.1354 303.182 86.3646C302.891 85.5938 302.479 84.9167 301.943 84.3333C301.401 83.7552 300.76 83.3177 300 82.9844C299.24 82.6562 298.412 82.5052 297.49 82.5052M305 81.4531V96.7552H303.51V94.0052H303.453C302.912 94.9479 302.104 95.6979 301 96.2552C299.901 96.8177 298.781 97.0833 297.62 97.0833C296.12 97.0833 294.802 96.724 293.651 96.0156C292.5 95.3073 291.62 94.3281 291 93.0833C290.38 91.8438 290.073 90.4844 290.073 89.0052C290.073 87.8854 290.24 86.8438 290.604 85.875C290.964 84.9063 291.453 84.0781 292.109 83.3646C292.771 82.6563 293.563 82.1042 294.479 81.7135C295.401 81.3281 296.432 81.125 297.563 81.125C298.75 81.125 299.87 81.3854 300.922 81.9063C301.974 82.4271 302.813 83.1563 303.453 84.1042H303.51V81.4531H305Z" fill="white"/>
</mask>
<g mask="url(#mask28_1329_1031)">
<path d="M243.604 66.4531H354.25V102.083H243.604V66.4531Z" fill="white"/>
</g>
</g>
<mask id="mask29_1329_1031" style="mask-type:luminance" maskUnits="userSpaceOnUse" x="309" y="81" width="8" height="16">
<path d="M309.99 81.0677H316.531V96.7969H309.99V81.0677Z" fill="white"/>
</mask>
<g mask="url(#mask29_1329_1031)">
<mask id="mask30_1329_1031" style="mask-type:luminance" maskUnits="userSpaceOnUse" x="310" y="81" width="7" height="16">
<path d="M311.5 81.4531V83.4375H311.563C312.224 81.8958 313.333 81.125 314.88 81.125C315.411 81.125 315.953 81.2448 316.5 81.4844L315.714 82.8177C315.354 82.6146 315 82.5156 314.651 82.5156C313.729 82.5156 313.042 82.8073 312.583 83.375C312.12 83.9479 311.823 84.6354 311.693 85.4271C311.563 86.2135 311.5 87.1354 311.5 88.1667V96.7552H310V81.4531H311.5Z" fill="white"/>
</mask>
<g mask="url(#mask30_1329_1031)">
<path d="M243.604 66.4531H354.25V102.083H243.604V66.4531Z" fill="white"/>
</g>
</g>
<mask id="mask31_1329_1031" style="mask-type:luminance" maskUnits="userSpaceOnUse" x="317" y="75" width="7" height="22">
<path d="M319.281 75.9948H320.771V81.4531H319.281V75.9948ZM317.594 81.4531H323.453V82.8438H317.594V81.4531ZM319.281 82.8438H320.771V96.7552H319.281V82.8438Z" fill="white"/>
</mask>
<g mask="url(#mask31_1329_1031)">
<path d="M243.604 66.4531H354.25V102.083H243.604V66.4531Z" fill="white"/>
</g>
<mask id="mask32_1329_1031" style="mask-type:luminance" maskUnits="userSpaceOnUse" x="324" y="81" width="16" height="17">
<path d="M324.328 81.0677H339.219V97.2136H324.328V81.0677Z" fill="white"/>
</mask>
<g mask="url(#mask32_1329_1031)">
<mask id="mask33_1329_1031" style="mask-type:luminance" maskUnits="userSpaceOnUse" x="324" y="81" width="16" height="17">
<path d="M325.932 87.8438H337.729C337.609 86.9063 337.292 86.026 336.75 85.2031C336.214 84.3854 335.531 83.7344 334.682 83.2448C333.833 82.7552 332.911 82.5156 331.891 82.5156C330.87 82.5156 329.932 82.7552 329.052 83.2344C328.172 83.7135 327.453 84.3646 326.891 85.1875C326.333 86.0052 326.01 86.8854 325.922 87.8333M339.203 89.224H325.932C325.932 90.5156 326.203 91.6563 326.729 92.6354C327.26 93.6146 328 94.3646 328.932 94.8958C329.859 95.4271 330.911 95.6875 332.063 95.6875C333.229 95.6875 334.281 95.3646 335.224 94.7344C336.161 94.1042 336.912 93.2552 337.464 92.2031L338.714 92.9375C338.01 94.2656 337.073 95.2865 335.891 95.9948C334.714 96.7031 333.359 97.0781 331.859 97.0781C330.391 97.0781 329.094 96.7135 327.974 95.9948C326.854 95.276 325.974 94.3073 325.359 93.0781C324.75 91.8438 324.443 90.5156 324.443 89.0677C324.443 87.6354 324.75 86.3177 325.37 85.1042C325.99 83.8958 326.87 82.9271 327.99 82.2031C329.109 81.4844 330.411 81.125 331.859 81.125C333.354 81.125 334.661 81.4844 335.771 82.2135C336.88 82.9479 337.74 83.9271 338.323 85.1667C338.901 86.4063 339.203 87.7552 339.203 89.2344" fill="white"/>
</mask>
<g mask="url(#mask33_1329_1031)">
<path d="M243.604 66.4531H354.25V102.083H243.604V66.4531Z" fill="white"/>
</g>
</g>
<mask id="mask34_1329_1031" style="mask-type:luminance" maskUnits="userSpaceOnUse" x="342" y="81" width="8" height="16">
<path d="M342.708 81.0677H349.24V96.7969H342.708V81.0677Z" fill="white"/>
</mask>
<g mask="url(#mask34_1329_1031)">
<mask id="mask35_1329_1031" style="mask-type:luminance" maskUnits="userSpaceOnUse" x="342" y="81" width="8" height="16">
<path d="M344.224 81.4531V83.4375H344.281C344.943 81.8958 346.052 81.125 347.604 81.125C348.13 81.125 348.672 81.2448 349.224 81.4844L348.432 82.8177C348.073 82.6146 347.724 82.5156 347.37 82.5156C346.453 82.5156 345.76 82.8073 345.302 83.375C344.844 83.9479 344.542 84.6354 344.411 85.4271C344.281 86.2135 344.224 87.1354 344.224 88.1667V96.7552H342.724V81.4531H344.224Z" fill="white"/>
</mask>
<g mask="url(#mask35_1329_1031)">
<path d="M243.604 66.4531H354.25V102.083H243.604V66.4531Z" fill="white"/>
</g>
</g>
<mask id="mask36_1329_1031" style="mask-type:luminance" maskUnits="userSpaceOnUse" x="359" y="70" width="37" height="28">
<path d="M359.766 70.3959H395.677V97.6615H359.766V70.3959Z" fill="white"/>
</mask>
<g mask="url(#mask36_1329_1031)">
<mask id="mask37_1329_1031" style="mask-type:luminance" maskUnits="userSpaceOnUse" x="359" y="70" width="37" height="28">
<path d="M361.443 71.7865L368.458 93.2448L377.802 70.5261L387.141 93.2448L394.063 71.7865H395.651L387.24 97.5729L377.703 74.4948L368.193 97.5729L359.849 71.7865H361.443Z" fill="white"/>
</mask>
<g mask="url(#mask37_1329_1031)">
<path d="M354.849 64.4323H450.51V102.578H354.849V64.4323Z" fill="white"/>
</g>
</g>
<mask id="mask38_1329_1031" style="mask-type:luminance" maskUnits="userSpaceOnUse" x="396" y="81" width="18" height="17">
<path d="M396.87 81.125H413.109V97.2135H396.87V81.125Z" fill="white"/>
</mask>
<g mask="url(#mask38_1329_1031)">
<mask id="mask39_1329_1031" style="mask-type:luminance" maskUnits="userSpaceOnUse" x="397" y="81" width="17" height="17">
<path d="M404.859 82.5156C403.682 82.5156 402.599 82.8125 401.63 83.4271C400.662 84.0365 399.891 84.8333 399.328 85.8542C398.771 86.875 398.5 87.9635 398.5 89.1354C398.5 90.2865 398.781 91.3646 399.339 92.375C399.901 93.3854 400.672 94.1823 401.641 94.7865C402.609 95.3854 403.693 95.6823 404.859 95.6823C406.078 95.6823 407.203 95.3958 408.219 94.8229C409.24 94.2552 410.052 93.4531 410.63 92.4531C411.208 91.4531 411.51 90.3438 411.51 89.1354C411.51 87.8958 411.219 86.7656 410.63 85.7552C410.042 84.7448 409.25 83.9531 408.229 83.375C407.208 82.7969 406.089 82.5156 404.849 82.5156M404.953 81.125C406.073 81.125 407.12 81.3229 408.109 81.7344C409.099 82.1458 409.953 82.7031 410.682 83.4167C411.412 84.125 411.979 84.9844 412.391 85.9531C412.802 86.9271 413.01 87.974 413.01 89.1042C413.01 90.5938 412.651 91.9427 411.943 93.1667C411.229 94.3854 410.26 95.3438 409.021 96.0365C407.781 96.724 406.432 97.0833 404.958 97.0833C403.521 97.0833 402.193 96.724 400.969 96.0052C399.75 95.2865 398.792 94.3125 398.078 93.0938C397.37 91.875 397.01 90.5573 397.01 89.1354C397.01 87.6927 397.359 86.3542 398.073 85.125C398.781 83.8958 399.74 82.9271 400.958 82.2031C402.182 81.4844 403.51 81.125 404.958 81.125" fill="white"/>
</mask>
<g mask="url(#mask39_1329_1031)">
<path d="M354.849 64.4323H450.511V102.578H354.849V64.4323Z" fill="white"/>
</g>
</g>
<mask id="mask40_1329_1031" style="mask-type:luminance" maskUnits="userSpaceOnUse" x="416" y="81" width="8" height="16">
<path d="M416.385 81.125H423.094V96.7448H416.385V81.125Z" fill="white"/>
</mask>
<g mask="url(#mask40_1329_1031)">
<mask id="mask41_1329_1031" style="mask-type:luminance" maskUnits="userSpaceOnUse" x="416" y="81" width="8" height="16">
<path d="M418.01 81.4531V83.4323H418.078C418.74 81.8958 419.849 81.125 421.401 81.125C421.932 81.125 422.469 81.2448 423.021 81.4844L422.229 82.8125C421.87 82.6146 421.51 82.5156 421.172 82.5156C420.25 82.5156 419.563 82.8073 419.099 83.375C418.641 83.9427 418.339 84.6354 418.208 85.4271C418.078 86.2135 418.021 87.1354 418.021 88.1667V96.7448H416.51V81.4531H418.01Z" fill="white"/>
</mask>
<g mask="url(#mask41_1329_1031)">
<path d="M354.849 64.4323H450.511V102.578H354.849V64.4323Z" fill="white"/>
</g>
</g>
<mask id="mask42_1329_1031" style="mask-type:luminance" maskUnits="userSpaceOnUse" x="425" y="69" width="3" height="28">
<path d="M425.62 69.4323H427.12V96.7552H425.62V69.4323Z" fill="white"/>
</mask>
<g mask="url(#mask42_1329_1031)">
<path d="M354.849 64.4323H450.511V102.578H354.849V64.4323Z" fill="white"/>
</g>
<mask id="mask43_1329_1031" style="mask-type:luminance" maskUnits="userSpaceOnUse" x="430" y="69" width="16" height="29">
<path d="M430.542 69.3542H445.594V97.2136H430.542V69.3542Z" fill="white"/>
</mask>
<g mask="url(#mask43_1329_1031)">
<mask id="mask44_1329_1031" style="mask-type:luminance" maskUnits="userSpaceOnUse" x="430" y="69" width="16" height="29">
<path d="M438.151 95.6927C439.401 95.6927 440.479 95.3854 441.401 94.7656C442.323 94.1459 443.011 93.3125 443.469 92.2656C443.932 91.2136 444.172 90.0729 444.172 88.8334C444.172 87.9636 444.031 87.1354 443.74 86.3646C443.453 85.5938 443.042 84.9167 442.5 84.3334C441.958 83.7552 441.323 83.3073 440.563 82.9844C439.802 82.6667 438.969 82.5052 438.052 82.5052C437.193 82.5052 436.391 82.6823 435.672 83.0365C434.953 83.3854 434.323 83.875 433.792 84.4844C433.261 85.0938 432.849 85.8073 432.563 86.5834C432.271 87.3646 432.12 88.1771 432.12 88.9948C432.12 90.1771 432.37 91.2761 432.87 92.3073C433.37 93.3334 434.073 94.1563 434.99 94.7656C435.912 95.375 436.958 95.6823 438.151 95.6823M444.078 96.7448V94.0052H444.011C443.469 94.9427 442.662 95.6927 441.563 96.2552C440.458 96.8125 439.339 97.0834 438.182 97.0834C436.682 97.0834 435.36 96.724 434.208 96.0156C433.063 95.3073 432.182 94.3229 431.563 93.0834C430.943 91.8438 430.63 90.4844 430.63 89.0052C430.63 87.8854 430.802 86.8438 431.162 85.875C431.521 84.9063 432.011 84.0729 432.672 83.3542C433.328 82.6354 434.12 82.0938 435.042 81.7031C435.958 81.3125 436.99 81.1146 438.12 81.1146C439.313 81.1146 440.432 81.375 441.479 81.8959C442.531 82.4167 443.37 83.1459 444.011 84.0938H444.078V69.4323H445.573V96.7552L444.078 96.7448Z" fill="white"/>
</mask>
<g mask="url(#mask44_1329_1031)">
<path d="M354.849 64.4323H450.511V102.578H354.849V64.4323Z" fill="white"/>
</g>
</g>
<mask id="mask45_1329_1031" style="mask-type:luminance" maskUnits="userSpaceOnUse" x="130" y="19" width="32" height="40">
<path d="M130 19.2969H161.146V58.5156H130V19.2969Z" fill="white"/>
</mask>
<g mask="url(#mask45_1329_1031)">
<mask id="mask46_1329_1031" style="mask-type:luminance" maskUnits="userSpaceOnUse" x="130" y="19" width="32" height="40">
<path d="M140.021 37.8386H142C144.302 37.8386 145.99 37.4532 147.052 36.6615C148.115 35.8698 148.641 34.6407 148.641 32.9584C148.641 31 148.141 29.599 147.151 28.7709C146.161 27.9427 144.49 27.5209 142.161 27.5209H140.021V37.8386ZM130 58.5105V19.3021H141.172C145.542 19.3021 148.594 19.5 150.323 19.9011C152.052 20.3021 153.531 20.9792 154.781 21.9219C156.193 22.9896 157.281 24.3594 158.042 26.0209C158.802 27.6823 159.182 29.5105 159.182 31.5105C159.182 34.5521 158.432 37.0105 156.943 38.9219C155.453 40.8334 153.271 42.0886 150.422 42.7084L161.104 58.5105H149.021L140.021 43.1615V58.5105H130Z" fill="white"/>
</mask>
<g mask="url(#mask46_1329_1031)">
<path d="M125 14.3021H297.635V63.5157H125V14.3021Z" fill="white"/>
</g>
</g>
<mask id="mask47_1329_1031" style="mask-type:luminance" maskUnits="userSpaceOnUse" x="164" y="19" width="26" height="40">
<path d="M164.99 19.2969H189.042V58.625H164.99V19.2969Z" fill="white"/>
</mask>
<g mask="url(#mask47_1329_1031)">
<mask id="mask48_1329_1031" style="mask-type:luminance" maskUnits="userSpaceOnUse" x="165" y="19" width="25" height="40">
<path d="M165 58.5105V19.3021H189.031V27.9011H175.422V34.7032H188.25V43.1094H175.422V49.7292H189.031V58.5209L165 58.5105Z" fill="white"/>
</mask>
<g mask="url(#mask48_1329_1031)">
<path d="M125 14.3021H297.635V63.5157H125V14.3021Z" fill="white"/>
</g>
</g>
<mask id="mask49_1329_1031" style="mask-type:luminance" maskUnits="userSpaceOnUse" x="195" y="19" width="37" height="40">
<path d="M195.938 19.2969H231.313V58.625H195.938V19.2969Z" fill="white"/>
</mask>
<g mask="url(#mask49_1329_1031)">
<mask id="mask50_1329_1031" style="mask-type:luminance" maskUnits="userSpaceOnUse" x="195" y="19" width="37" height="40">
<path d="M206.521 49.7292H208.312C212.51 49.7292 215.573 48.8698 217.5 47.1511C219.432 45.4323 220.391 42.6927 220.391 38.9427C220.391 35.1927 219.422 32.4427 217.5 30.6927C215.583 28.9427 212.51 28.073 208.312 28.073H206.521V49.7292ZM195.943 58.5105V19.3021H204.115C210.203 19.3021 214.51 19.5886 217.031 20.1615C219.552 20.7292 221.771 21.6927 223.693 23.0313C226.172 24.7605 228.062 26.9792 229.344 29.6927C230.62 32.4011 231.271 35.4792 231.271 38.9427C231.271 42.4011 230.63 45.4896 229.344 48.2032C228.052 50.9115 226.172 53.1198 223.693 54.849C221.802 56.1719 219.641 57.1094 217.213 57.6823C214.781 58.25 211.01 58.5209 205.911 58.5209H204.115L195.943 58.5105Z" fill="white"/>
</mask>
<g mask="url(#mask50_1329_1031)">
<path d="M125 14.3021H297.635V63.5157H125V14.3021Z" fill="white"/>
</g>
</g>
<mask id="mask51_1329_1031" style="mask-type:luminance" maskUnits="userSpaceOnUse" x="238" y="19" width="11" height="40">
<path d="M238.073 19.3021H248.865V58.5105H238.073V19.3021Z" fill="white"/>
</mask>
<g mask="url(#mask51_1329_1031)">
<path d="M125 14.3021H297.635V63.5157H125V14.3021Z" fill="white"/>
</g>
<mask id="mask52_1329_1031" style="mask-type:luminance" maskUnits="userSpaceOnUse" x="252" y="19" width="41" height="40">
<path d="M252.266 19.2969H292.828V58.625H252.266V19.2969Z" fill="white"/>
</mask>
<g mask="url(#mask52_1329_1031)">
<mask id="mask53_1329_1031" style="mask-type:luminance" maskUnits="userSpaceOnUse" x="252" y="19" width="41" height="40">
<path d="M271.203 28.4115L271.25 28.5209C271.87 29.7032 272.292 30.7292 272.51 31.6302C272.714 30.8125 273.115 29.8386 273.724 28.7084C273.792 28.5886 273.844 28.4896 273.88 28.4115L278.594 19.3021H291.26L278.162 38.1615L292.651 58.5209H280.521L273.88 46.9011C273.583 46.3802 273.313 45.849 273.083 45.3125C272.854 44.7709 272.662 44.2188 272.521 43.6615C272.365 44.2917 272.172 44.8698 271.964 45.4011C271.75 45.9323 271.5 46.4427 271.214 46.9011L264.51 58.5209H252.37L266.912 37.9532L253.76 19.3021H266.484L271.203 28.4115Z" fill="white"/>
</mask>
<g mask="url(#mask53_1329_1031)">
<path d="M125 14.3021H297.635V63.5157H125V14.3021Z" fill="white"/>
</g>
</g>
<mask id="mask54_1329_1031" style="mask-type:luminance" maskUnits="userSpaceOnUse" x="311" y="18" width="31" height="42">
<path d="M311.193 18.1979H341.437V59.5938H311.193V18.1979Z" fill="white"/>
</mask>
<g mask="url(#mask54_1329_1031)">
<mask id="mask55_1329_1031" style="mask-type:luminance" maskUnits="userSpaceOnUse" x="311" y="18" width="31" height="42">
<path d="M341.313 20.8281V32.5052C339.854 30.8854 338.396 29.6875 336.932 28.9271C335.474 28.1667 333.922 27.7865 332.266 27.7865C329.193 27.7865 326.703 28.8386 324.802 30.9375C322.906 33.0365 321.953 35.7761 321.953 39.1459C321.953 42.2865 322.922 44.8959 324.865 46.9688C326.802 49.0365 329.276 50.0781 332.266 50.0781C333.922 50.0781 335.484 49.6979 336.932 48.9375C338.385 48.1771 339.854 46.9792 341.313 45.3386V57.0365C339.615 57.8594 337.932 58.4792 336.255 58.8854C334.573 59.2969 332.875 59.5052 331.161 59.5052C329.026 59.5052 327.042 59.25 325.234 58.75C323.422 58.25 321.755 57.4688 320.234 56.4271C317.302 54.4688 315.073 51.9896 313.536 49.0052C311.995 46.0261 311.234 42.6667 311.234 38.9375C311.234 35.9375 311.724 33.2084 312.693 30.7552C313.661 28.3073 315.135 26.0781 317.104 24.0781C318.964 22.1667 321.052 20.7396 323.385 19.7865C325.714 18.8386 328.302 18.3698 331.161 18.3698C332.875 18.3698 334.573 18.5781 336.255 18.9896C337.932 19.3959 339.615 20.0156 341.313 20.8386" fill="white"/>
</mask>
<g mask="url(#mask55_1329_1031)">
<path d="M306.234 12H599.75V75.4583H306.234V12Z" fill="white"/>
</g>
</g>
<mask id="mask56_1329_1031" style="mask-type:luminance" maskUnits="userSpaceOnUse" x="344" y="30" width="32" height="30">
<path d="M344.906 30.5886H375.401V59.5938H344.906V30.5886Z" fill="white"/>
</mask>
<g mask="url(#mask56_1329_1031)">
<mask id="mask57_1329_1031" style="mask-type:luminance" maskUnits="userSpaceOnUse" x="344" y="30" width="32" height="30">
<path d="M365.714 45.0677C365.714 43.0469 365.203 41.4584 364.182 40.2969C363.161 39.1354 361.792 38.5573 360.063 38.5573C358.313 38.5573 356.932 39.1354 355.922 40.2969C354.911 41.4584 354.411 43.0469 354.411 45.0677C354.411 47.0886 354.911 48.6667 355.911 49.8281C356.911 50.9896 358.292 51.5573 360.063 51.5573C361.813 51.5573 363.193 50.9792 364.203 49.8281C365.214 48.6771 365.714 47.0886 365.714 45.0677ZM375.193 45.0677C375.193 47.0156 374.813 48.8698 374.052 50.6198C373.292 52.3698 372.193 53.9375 370.745 55.3281C369.286 56.7188 367.646 57.7761 365.833 58.4896C364.026 59.1979 362.094 59.5573 360.063 59.5573C357.995 59.5573 356.052 59.1979 354.234 58.4896C352.411 57.7761 350.802 56.7188 349.375 55.3281C347.943 53.9688 346.854 52.4063 346.104 50.6563C345.354 48.9063 344.984 47.0365 344.984 45.0781C344.984 43.099 345.354 41.2292 346.094 39.4792C346.833 37.7292 347.932 36.1563 349.375 34.7656C350.786 33.3959 352.396 32.3594 354.203 31.6563C356.016 30.9584 357.964 30.6198 360.052 30.6198C362.146 30.6198 364.094 30.9688 365.896 31.6563C367.693 32.349 369.313 33.3854 370.745 34.7656C372.203 36.1771 373.313 37.7552 374.063 39.5052C374.813 41.2552 375.182 43.1198 375.182 45.0781" fill="white"/>
</mask>
<g mask="url(#mask57_1329_1031)">
<path d="M306.234 12H599.75V75.4583H306.234V12Z" fill="white"/>
</g>
</g>
<mask id="mask58_1329_1031" style="mask-type:luminance" maskUnits="userSpaceOnUse" x="380" y="30" width="30" height="29">
<path d="M380.354 30.5886H409.609V58.6042H380.354V30.5886Z" fill="white"/>
</mask>
<g mask="url(#mask58_1329_1031)">
<mask id="mask59_1329_1031" style="mask-type:luminance" maskUnits="userSpaceOnUse" x="380" y="30" width="30" height="29">
<path d="M380.526 58.5157V31.4584H389.255V36.948C390.526 34.75 391.984 33.1459 393.646 32.1302C395.302 31.1094 397.292 30.599 399.615 30.599C401.365 30.599 402.922 30.8802 404.287 31.4375C405.646 32 406.766 32.8073 407.615 33.8594C408.323 34.7657 408.833 35.8802 409.146 37.1771C409.453 38.4792 409.604 40.4271 409.604 43.0157V58.5157H400.042V44.0261C400.042 41.8698 399.693 40.2969 398.984 39.3177C398.276 38.3386 397.146 37.849 395.594 37.849C393.615 37.849 392.162 38.5782 391.255 40.0469C390.344 41.5157 389.885 43.8855 389.885 47.1667V58.5157H380.526Z" fill="white"/>
</mask>
<g mask="url(#mask59_1329_1031)">
<path d="M306.234 12H599.75V75.4583H306.234V12Z" fill="white"/>
</g>
</g>
<mask id="mask60_1329_1031" style="mask-type:luminance" maskUnits="userSpaceOnUse" x="413" y="30" width="25" height="30">
<path d="M413.578 30.5886H437.87V59.5938H413.578V30.5886Z" fill="white"/>
</mask>
<g mask="url(#mask60_1329_1031)">
<mask id="mask61_1329_1031" style="mask-type:luminance" maskUnits="userSpaceOnUse" x="413" y="30" width="25" height="30">
<path d="M413.656 56.2656L415.635 48.9792C417.026 50.1875 418.552 51.1302 420.224 51.776C421.896 52.4271 423.573 52.7552 425.276 52.7552C426.474 52.7552 427.385 52.5677 428.005 52.1771C428.625 51.7865 428.943 51.2396 428.943 50.5052C428.943 49.3073 427.682 48.4167 425.161 47.8281C424.344 47.6302 423.682 47.4583 423.182 47.3177C420.323 46.5365 418.255 45.5 416.953 44.2292C415.656 42.9583 415.016 41.2969 415.016 39.2552C415.016 36.6354 416.005 34.5365 417.974 32.9688C419.943 31.3958 422.625 30.6094 425.995 30.6094C427.724 30.6094 429.495 30.8073 431.286 31.2083C433.073 31.6094 434.911 32.2292 436.792 33.0677L434.813 39.6302C433.542 38.7656 432.266 38.1198 430.953 37.6771C429.646 37.2396 428.344 37.0052 427.042 37.0052C425.953 37.0052 425.135 37.1771 424.583 37.5156C424.036 37.8594 423.755 38.349 423.755 38.9896C423.755 39.9479 425.005 40.7656 427.505 41.4271C428.073 41.5885 428.505 41.7083 428.792 41.776C432.094 42.7292 434.396 43.8385 435.693 45.1094C436.995 46.3802 437.635 48.1198 437.635 50.2865C437.635 53.0573 436.573 55.2865 434.443 57C432.313 58.7083 429.505 59.5573 426.005 59.5573C423.625 59.5573 421.422 59.2865 419.385 58.7396C417.344 58.1875 415.432 57.3698 413.656 56.2552" fill="white"/>
</mask>
<g mask="url(#mask61_1329_1031)">
<path d="M306.234 12H599.75V75.4583H306.234V12Z" fill="white"/>
</g>
</g>
<mask id="mask62_1329_1031" style="mask-type:luminance" maskUnits="userSpaceOnUse" x="442" y="31" width="29" height="29">
<path d="M442.333 31.3334H470.344V59.5938H442.333V31.3334Z" fill="white"/>
</mask>
<g mask="url(#mask62_1329_1031)">
<mask id="mask63_1329_1031" style="mask-type:luminance" maskUnits="userSpaceOnUse" x="442" y="31" width="29" height="29">
<path d="M470.292 31.4584V45.2865C470.292 48.3386 470.042 50.6094 469.552 52.0782C469.062 53.5469 468.234 54.8594 467.073 56C465.885 57.198 464.385 58.0886 462.604 58.6771C460.823 59.2657 458.724 59.5573 456.312 59.5573C453.922 59.5573 451.833 59.2657 450.052 58.6771C448.276 58.0886 446.766 57.198 445.516 56C444.354 54.8855 443.536 53.5886 443.052 52.099C442.573 50.6094 442.333 48.3386 442.333 45.2761V31.4584H451.443V45.8959C451.443 48.1667 451.823 49.8073 452.562 50.8073C453.302 51.8073 454.526 52.3177 456.203 52.3177C457.906 52.3177 459.115 51.8282 459.865 50.8282C460.615 49.8282 460.974 48.1875 460.974 45.8855V31.4584H470.292Z" fill="white"/>
</mask>
<g mask="url(#mask63_1329_1031)">
<path d="M306.234 12H599.75V75.4583H306.234V12Z" fill="white"/>
</g>
</g>
<mask id="mask64_1329_1031" style="mask-type:luminance" maskUnits="userSpaceOnUse" x="477" y="17" width="10" height="42">
<path d="M477.255 17H486.812V58.5156H477.255V17Z" fill="white"/>
</mask>
<g mask="url(#mask64_1329_1031)">
<path d="M306.234 12H599.75V75.4583H306.234V12Z" fill="white"/>
</g>
<mask id="mask65_1329_1031" style="mask-type:luminance" maskUnits="userSpaceOnUse" x="491" y="23" width="19" height="36">
<path d="M491.167 23.1511H509.016V58.6042H491.167V23.1511Z" fill="white"/>
</mask>
<g mask="url(#mask65_1329_1031)">
<mask id="mask66_1329_1031" style="mask-type:luminance" maskUnits="userSpaceOnUse" x="491" y="23" width="18" height="36">
<path d="M495.411 58.5157V38.2084H491.375V31.4584H495.411V23.3959H504.813V31.4584H508.854V38.2084H504.813V58.5053L495.411 58.5157Z" fill="white"/>
</mask>
<g mask="url(#mask66_1329_1031)">
<path d="M306.234 12H599.75V75.4583H306.234V12Z" fill="white"/>
</g>
</g>
<mask id="mask67_1329_1031" style="mask-type:luminance" maskUnits="userSpaceOnUse" x="512" y="17" width="12" height="42">
<path d="M512.734 17.6979H523.646V58.6042H512.734V17.6979Z" fill="white"/>
</mask>
<g mask="url(#mask67_1329_1031)">
<mask id="mask68_1329_1031" style="mask-type:luminance" maskUnits="userSpaceOnUse" x="512" y="17" width="12" height="42">
<path d="M513.406 31.4584H522.963V58.5157H513.406V31.4584ZM512.922 23.0157C512.922 21.5677 513.432 20.3386 514.463 19.3177C515.495 18.2969 516.724 17.7865 518.172 17.7865C519.672 17.7865 520.922 18.2865 521.932 19.2865C522.943 20.2865 523.443 21.5261 523.443 23.0052C523.443 24.4896 522.932 25.75 521.906 26.7865C520.875 27.8282 519.635 28.3386 518.161 28.3386C516.734 28.3386 515.505 27.8073 514.463 26.7552C513.422 25.7084 512.911 24.4584 512.911 23.0052" fill="white"/>
</mask>
<g mask="url(#mask68_1329_1031)">
<path d="M306.234 12H599.75V75.4583H306.234V12Z" fill="white"/>
</g>
</g>
<mask id="mask69_1329_1031" style="mask-type:luminance" maskUnits="userSpaceOnUse" x="530" y="30" width="30" height="29">
<path d="M530.089 30.5886H559.344V58.6042H530.089V30.5886Z" fill="white"/>
</mask>
<g mask="url(#mask69_1329_1031)">
<mask id="mask70_1329_1031" style="mask-type:luminance" maskUnits="userSpaceOnUse" x="530" y="30" width="30" height="29">
<path d="M530.094 58.5157V31.4584H538.823V36.948C540.094 34.75 541.552 33.1459 543.214 32.1302C544.875 31.1094 546.865 30.599 549.182 30.599C550.932 30.599 552.495 30.8802 553.854 31.4375C555.214 32 556.333 32.8073 557.193 33.8594C557.906 34.7657 558.411 35.8802 558.724 37.1771C559.036 38.4792 559.182 40.4271 559.182 43.0157V58.5157H549.625V44.0261C549.625 41.8698 549.276 40.2969 548.563 39.3177C547.854 38.3386 546.724 37.849 545.172 37.849C543.193 37.849 541.745 38.5782 540.833 40.0469C539.922 41.5157 539.464 43.8855 539.464 47.1667V58.5157H530.094Z" fill="white"/>
</mask>
<g mask="url(#mask70_1329_1031)">
<path d="M306.234 12H599.75V75.4583H306.234V12Z" fill="white"/>
</g>
</g>
<mask id="mask71_1329_1031" style="mask-type:luminance" maskUnits="userSpaceOnUse" x="564" y="30" width="31" height="41">
<path d="M564.302 30.5886H594.792V70.5052H564.302V30.5886Z" fill="white"/>
</mask>
<g mask="url(#mask71_1329_1031)">
<mask id="mask72_1329_1031" style="mask-type:luminance" maskUnits="userSpaceOnUse" x="564" y="30" width="31" height="41">
<path d="M586.365 44.9063C586.365 42.8177 585.802 41.1771 584.693 39.9896C583.583 38.7969 582.036 38.2084 580.073 38.2084C578.094 38.2084 576.536 38.7969 575.406 39.9896C574.276 41.1771 573.703 42.8177 573.703 44.9063C573.703 46.9792 574.276 48.6094 575.406 49.8073C576.536 51.0052 578.094 51.6094 580.073 51.6094C582.026 51.6094 583.552 51.0052 584.682 49.8073C585.813 48.6094 586.375 46.9792 586.375 44.9063M594.755 31.4584V58.4584C594.755 62.5469 593.505 65.5677 591.016 67.5261C588.526 69.4896 584.672 70.4584 579.453 70.4584C575.245 70.4584 571.932 69.6771 569.542 68.1198C567.156 66.5573 565.885 64.349 565.745 61.4896H575.625C575.766 62.3281 576.234 62.9896 577.036 63.4584C577.833 63.9271 578.875 64.1667 580.182 64.1667C582.234 64.1667 583.656 63.6771 584.422 62.6771C585.193 61.6771 585.594 59.599 585.594 56.4271V53.9584C584.594 55.6563 583.313 56.9167 581.766 57.75C580.214 58.5781 578.354 59 576.214 59C572.646 59 569.776 57.7084 567.615 55.1302C565.453 52.5469 564.375 49.1094 564.375 44.8073C564.375 40.4688 565.505 37.0156 567.766 34.4584C570.026 31.8959 573.063 30.6198 576.885 30.6198C578.906 30.6198 580.646 31.0365 582.125 31.8802C583.604 32.7188 584.875 34.0261 585.943 35.8177V31.4584H594.755Z" fill="white"/>
</mask>
<g mask="url(#mask72_1329_1031)">
<path d="M306.234 12H599.75V75.4583H306.234V12Z" fill="white"/>
</g>
</g>
</svg>
