<svg width="33" height="33" viewBox="0 0 33 33" fill="none" xmlns="http://www.w3.org/2000/svg">
<path d="M16.5 8.76562C16.5 13.0372 13.1079 16.5 8.92347 16.5H1.34694V8.76562C1.34694 4.49404 4.73906 1.03125 8.92347 1.03125C13.1079 1.03125 16.5 4.49404 16.5 8.76562Z" fill="white"/>
<path d="M16.5 24.2344C16.5 19.9628 19.8921 16.5 24.0765 16.5H31.6531V24.2344C31.6531 28.5059 28.2609 31.9688 24.0765 31.9688C19.8921 31.9688 16.5 28.5059 16.5 24.2344Z" fill="white"/>
<path d="M1.34694 24.2344C1.34694 28.5059 4.73906 31.9688 8.92347 31.9688H16.5V24.2344C16.5 19.9628 13.1079 16.5 8.92347 16.5C4.73906 16.5 1.34694 19.9628 1.34694 24.2344Z" fill="white"/>
<path d="M31.6531 8.76562C31.6531 4.49404 28.2609 1.03125 24.0765 1.03125H16.5V8.76562C16.5 13.0372 19.8921 16.5 24.0765 16.5C28.2609 16.5 31.6531 13.0372 31.6531 8.76562Z" fill="white"/>
</svg>
